# xmcd CD database file
#
# Track frame offsets:
#	150
#	14218
#	30321
#	48362
#	78068
#	95868
#	131634
#	158477
#	183169
#	199282
#	215477
#	242939
#	257320
#
# Disc length: 3481 seconds
#
# Revision: 0
# Processed by: cddbd v1.4PL0 Copyright (c) Steve Scherf et al.
# Submitted via: CDex 1.50
#
DISCID=a90d970d
DTITLE=Jimmy Thackery and The Drivers - Switching Gears
DYEAR=1900
DGENRE=Blues
TTITLE0=Ive Got Other Plans
TTITLE1=Take Me With You When You Go
TTITLE2=Dancing On Broken Glass
TTITLE3=Its My Own Fault
TTITLE4=Monkey
TTITLE5=Roys Blues
TTITLE6=I Wouldnt Change A Thing
TTITLE7=Write If You Find Love
TTITLE8=I Got To Be Strong
TTITLE9=Gn In The Morning
TTITLE10=Still Rainning, Still Dreaming
TTITLE11=If This Is Love
TTITLE12=Still Rainning, Still Dreaming (reprise)
EXTD=
EXTT0=
EXTT1=
EXTT2=
EXTT3=
EXTT4=
EXTT5=
EXTT6=
EXTT7=
EXTT8=
EXTT9=
EXTT10=
EXTT11=
EXTT12=
PLAYORDER=
